Coordinates
version=1
nRows=15
nColumns=42
inDegrees=yes

Units are S.I. units (second, meters, Newtons, ...)
If the header above contains a line with 'inDegrees', this indicates whether rotational values are in degrees (yes) or radians (no).

endheader
time	pelvis_tilt	pelvis_list	pelvis_rotation	pelvis_tx	pelvis_ty	pelvis_tz	hip_flexion_r	hip_adduction_r	hip_rotation_r	knee_angle_r	knee_adduction_r	knee_angle_r_beta	ankle_angle_r	subtalar_angle_r	mtp_angle_r	hip_flexion_l	hip_adduction_l	hip_rotation_l	knee_angle_l	knee_adduction_l	knee_angle_l_beta	ankle_angle_l	subtalar_angle_l	mtp_angle_l	lumbar_extension	lumbar_bending	lumbar_rotation	arm_flex_r	arm_add_r	arm_rot_r	elbow_flex_r	pro_sup_r	wrist_flex_r	wrist_dev_r	arm_flex_l	arm_add_l	arm_rot_l	elbow_flex_l	pro_sup_l	wrist_flex_l	wrist_dev_l
      1.20000000	     -1.73362254	      0.21504766	     -6.26908920	      0.00075655	      0.84471601	     -0.35032182	    -14.68100910	     -3.06036663	      4.41868427	     17.09703048	      9.91549317	      0.29839947	      6.90766251	     -1.05204935	     -7.54465762	     22.78286606	     -4.84900372	     -8.55079636	     11.72137127	     10.19868193	      0.20457652	      6.83298952	     -3.28205635	     -7.54465762	     -3.90637646	     -1.52043468	     10.81558103	     10.16537113	    -20.60712684	     11.87869674	     44.67364325	     90.00000001	      0.00000000	      0.00000000	    -10.74551460	     -9.61535328	    -24.69034653	     36.91610925	     90.00000001	      0.00000000	      0.00000000
      1.21000000	     -1.78296516	      0.67265253	     -6.26458131	      0.01370828	      0.84512107	     -0.35099073	    -13.88261931	     -3.76707953	      3.90107824	     20.04933939	     10.14371869	      0.34992699	      5.06011442	     -1.95719015	     -7.53989088	     22.32474169	     -4.08405289	     -7.29958262	     12.13987400	     10.24303406	      0.21188077	      5.92148796	     -5.12224166	     -7.53989088	     -3.69849387	     -2.10524768	     10.74353177	      9.75833185	    -20.29851400	     11.41927796	     44.56402093	     90.00000001	      0.00000000	      0.00000000	    -10.76338307	     -9.81414696	    -24.85697726	     36.69211120	     90.00000001	      0.00000000	      0.00000000
      1.22000000	     -1.53381297	      1.05781964	     -6.25680993	      0.02697620	      0.84599169	     -0.35163482	    -13.35706729	     -4.38499673	      3.38000448	     23.03475653	     10.23415802	      0.40203234	      2.69242722	     -3.11281624	     -7.53893251	     21.60279065	     -3.46239353	     -6.80455999	     12.94139625	     10.30290174	      0.22586997	      5.85560406	     -5.26826598	     -7.53893251	     -3.80987494	     -2.63583006	     10.66972669	      9.32420348	    -20.10178041	     11.20592606	     44.40544114	     90.00000001	      0.00000000	      0.00000000	    -10.78604805	    -10.00346777	    -24.91033699	     36.59872801	     90.00000001	      0.00000000	      0.00000000
      1.23000000	     -1.47278977	      1.54800925	     -6.17944575	      0.04013291	      0.84672724	     -0.35249065	    -12.37466875	     -5.12387795	      2.72264918	     26.42042297	     10.33359868	      0.46112337	      0.27942610	     -4.57800904	     -7.53782371	     21.02904524	     -2.70789265	     -6.15670696	     13.59349566	     10.36065789	      0.23725126	      5.53657020	     -5.71453125	     -7.53782371	     -3.70154318	     -3.23896145	     10.49921149	      8.83923886	    -19.84460660	     10.86049081	     44.21191423	     90.00000001	      0.00000000	      0.00000000	    -10.78787831	    -10.19860951	    -24.95141008	     36.47127601	     90.00000001	      0.00000000	      0.00000000
      1.24000000	     -1.34835351	      1.99714030	     -6.10630610	      0.05319634	      0.84764418	     -0.35337868	    -11.29144868	     -5.79636390	      1.98056329	     30.00500674	     10.22681397	      0.52368616	     -2.28253352	     -6.08427723	     -7.53683798	     20.30853963	     -2.02226909	     -5.42447042	     14.09028253	     10.49758236	      0.24592182	      5.30854471	     -6.28279019	     -7.53683798	     -3.69336437	     -3.78535470	     10.27677966	      8.36002930	    -19.58388737	     10.53984600	     43.97249710	     90.00000001	      0.00000000	      0.00000000	    -10.74814602	    -10.36332986	    -24.94069568	     36.37530174	     90.00000001	      0.00000000	      0.00000000
      1.25000000	     -1.55404909	      2.59512065	     -5.87000788	      0.06589898	      0.84833404	     -0.35459864	     -9.64185402	     -6.62907523	      1.26974014	     33.81575194	     10.21841829	      0.59019621	     -4.73237631	     -7.99902054	     -7.53262088	     19.71154012	     -1.09620492	     -3.50391993	     13.84643046	     10.80304301	      0.24166580	      3.96167117	     -9.27198136	     -7.53262088	     -3.34838241	     -4.44425330	      9.89764254	      7.83815767	    -19.25786532	     10.04002949	     43.64535477	     90.00000001	      0.00000000	      0.00000000	    -10.67760052	    -10.55406877	    -24.88575171	     36.23118929	     90.00000001	      0.00000000	      0.00000000
      1.26000000	     -1.26384075	      3.05776566	     -5.79000166	      0.07897789	      0.84956770	     -0.35537320	     -8.50517136	     -7.23750361	      0.38974889	     37.47235628	      9.65589195	      0.65401600	     -7.16802851	     -9.54117372	     -7.53185849	     18.61791815	     -0.45072164	     -3.03976624	     14.01895219	     10.99560572	      0.24467687	      4.21979493	     -9.21610509	     -7.53185849	     -3.53991461	     -5.02458105	      9.59829618	      7.36782358	    -19.01005567	      9.86899098	     43.33049177	     90.00000001	      0.00000000	      0.00000000	    -10.59759558	    -10.75064496	    -24.82505423	     36.19663654	     90.00000001	      0.00000000	      0.00000000
      1.27000000	     -1.18458943	      3.61973078	     -5.62741037	      0.09179186	      0.85060417	     -0.35639759	     -6.98778563	     -7.96405951	     -0.39227213	     41.17742914	      9.13348823	      0.71868172	     -9.41668814	    -11.42279331	     -7.53126676	     17.66762451	      0.33570573	     -2.37936564	     13.91673461	     11.15869143	      0.24289284	      4.24559357	     -9.47531451	     -7.53126676	     -3.51179367	     -5.66257593	      9.18740737	      6.87496707	    -18.73139996	      9.62018112	     42.98838901	     90.00000001	      0.00000000	      0.00000000	    -10.51810863	    -10.94206459	    -24.71658005	     36.17128344	     90.00000001	      0.00000000	      0.00000000
      1.28000000	     -1.43470638	      4.25525852	     -5.36939266	      0.10415087	      0.85132189	     -0.35768400	     -4.97723713	     -8.77692407	     -0.80189933	     44.86549495	      8.85120762	      0.78305061	    -11.20729454	    -13.54676203	     -7.52937076	     17.01118231	      1.22929736	     -1.29405496	     13.54509604	     11.33217269	      0.23640652	      3.70315706	    -10.89697783	     -7.52937076	     -3.15833989	     -6.32376876	      8.70924151	      6.35049693	    -18.39896270	      9.17762677	     42.55703416	     90.00000001	      0.00000000	      0.00000000	    -10.39869944	    -11.14500623	    -24.47969120	     36.13459102	     90.00000001	      0.00000000	      0.00000000
      1.29000000	     -0.91249456	      4.24602192	     -5.04060813	      0.11662474	      0.85308301	     -0.35854716	     -4.12438025	     -8.75716530	     -0.82277930	     47.71507547	      8.63346388	      0.83278517	    -11.89054480	    -14.25537393	     -7.52919963	     15.49222013	      1.31253549	     -0.92071348	     13.44958432	     11.68860029	      0.23473953	      4.01081130	    -10.73357947	     -7.52919963	     -3.82164878	     -6.34167222	      7.95590287	      6.07516697	    -18.22821801	      9.11265453	     42.30322077	     90.00000001	      0.00000000	      0.00000000	    -10.15220480	    -11.22921431	    -24.38959002	     36.09149261	     90.00000001	      0.00000000	      0.00000000
      1.30000000	     -1.20084444	      5.24535515	     -4.97842674	      0.12915428	      0.85366492	     -0.35967270	     -1.71015324	     -9.88619413	     -2.01397938	     51.39399036	      7.26837689	      0.89699435	    -13.26384923	    -16.05593728	     -7.52762283	     14.48215395	      2.62159540	     -0.24715633	     12.31324295	     11.59365977	      0.21490663	      4.16075311	    -11.05234506	     -7.52762283	     -3.30363194	     -7.40683839	      7.69029303	      5.42565386	    -17.88247681	      8.82221244	     41.69965427	     90.00000001	      0.00000000	      0.00000000	    -10.07080226	    -11.50238701	    -24.11508557	     36.17426925	     90.00000001	      0.00000000	      0.00000000
      1.31000000	     -1.04868807	      5.62964041	     -4.81042641	      0.14145180	      0.85490048	     -0.36057424	     -0.04610445	    -10.22802480	     -2.50296819	     54.26110418	      6.32066657	      0.94703492	    -13.44562042	    -16.73260094	     -7.52618879	     13.00576860	      3.17971287	      0.15425193	     11.40763316	     11.69386242	      0.19910076	      4.47812655	    -10.92581571	     -7.52618879	     -3.44478080	     -7.80267396	      7.14440448	      4.99996810	    -17.65287579	      8.70368721	     41.26182247	     90.00000001	      0.00000000	      0.00000000	     -9.88031570	    -11.64324312	    -23.92708482	     36.19065795	     90.00000001	      0.00000000	      0.00000000
      1.32000000	     -0.86601549	      5.79084799	     -4.67997032	      0.15363093	      0.85620742	     -0.36125477	      1.58164588	    -10.22935532	     -2.87205491	     56.75237413	      5.34406655	      0.99051579	    -13.11127645	    -17.25930504	     -7.52557827	     11.44381006	      3.41169554	      0.17623087	     10.49669347	     11.86203466	      0.18320186	      5.11170946	    -10.32848868	     -7.52557827	     -3.64144375	     -7.95526541	      6.65197864	      4.58017668	    -17.49034107	      8.68979863	     40.75020845	     90.00000001	      0.00000000	      0.00000000	     -9.60214158	    -11.73827654	    -23.78304002	     36.21355990	     90.00000001	      0.00000000	      0.00000000
      1.33000000	     -0.66521664	      5.86284972	     -4.48300057	      0.16548299	      0.85749198	     -0.36189709	      3.19900322	    -10.07640843	     -3.10792013	     58.93464199	      4.49113122	      1.02860355	    -12.24455978	    -17.64213666	     -7.52511867	      9.90302587	      3.55574079	      0.14693126	      9.69181502	     11.99800417	      0.16915408	      5.64250352	     -9.63056720	     -7.52511867	     -3.92600109	     -8.00740184	      6.08102925	      4.20014390	    -17.33638879	      8.67517692	     40.30256341	     90.00000001	      0.00000000	      0.00000000	     -9.25152502	    -11.83002887	    -23.62322623	     36.26737673	     90.00000001	      0.00000000	      0.00000000
      1.34000000	     -0.55285945	      5.89832262	     -4.32375986	      0.17722912	      0.85863424	     -0.36259007	      4.95609233	     -9.85278363	     -3.32435871	     60.81518744	      3.62381965	      1.06142526	    -11.08692538	    -17.82665352	     -7.52467128	      8.35463643	      3.67853980	      0.01935237	      8.68442611	     12.05694555	      0.15157183	      6.19848477	     -8.78634699	     -7.52467128	     -4.11907796	     -7.97925794	      5.51138578	      3.81720587	    -17.21570981	      8.66198182	     39.84150896	     90.00000001	      0.00000000	      0.00000000	     -8.94893834	    -11.87510426	    -23.44585596	     36.30754626	     90.00000001	      0.00000000	      0.00000000
